<svg xmlns="http://www.w3.org/2000/svg" version="1.1" xmlns:xlink="http://www.w3.org/1999/xlink" xmlns:svgjs="http://svgjs.dev/svgjs" width="1500" height="1500" viewBox="0 0 1500 1500"><rect width="1500" height="1500" fill="#ffffff"></rect><g transform="matrix(0.6666666666666666,0,0,0.6666666666666666,249.39393939393938,438.5856950067477)"><svg viewBox="0 0 396 247" data-background-color="#000000" preserveAspectRatio="xMidYMid meet" height="935" width="1500" xmlns="http://www.w3.org/2000/svg" xmlns:xlink="http://www.w3.org/1999/xlink"><g id="tight-bounds" transform="matrix(1,0,0,1,0.2400000000000091,-0.09999999999999432)"><svg viewBox="0 0 395.52 247.2" height="247.2" width="395.52"><rect width="395.52" height="247.2" fill="#000000" mask="url(#3ad9fda6-1309-4ffb-ba68-88b3af94e6a3)" data-fill-palette-color="tertiary"></rect><g><svg></svg></g><g><svg viewBox="0 0 395.52 247.2" height="247.2" width="395.52"><g transform="matrix(1,0,0,1,75.54432,102.34700118917502)"><svg viewBox="0 0 244.43135999999998 42.50599762164996" height="42.50599762164996" width="244.43135999999998"><g><svg viewBox="0 0 244.43135999999998 42.50599762164996" height="42.50599762164996" width="244.43135999999998"><g><svg viewBox="0 0 338.57784517411955 58.87783417690142" height="42.50599762164996" width="244.43135999999998"><g transform="matrix(1,0,0,1,94.14648517411955,8.137240468732397)"><svg viewBox="0 0 244.43135999999998 42.60335323943663" height="42.60335323943663" width="244.43135999999998"><g id="textblocktransform"><svg viewBox="0 0 244.43135999999998 42.60335323943663" height="42.60335323943663" width="244.43135999999998" id="textblock"><g><svg viewBox="0 0 244.43135999999998 42.60335323943663" height="42.60335323943663" width="244.43135999999998"><g transform="matrix(1,0,0,1,0,0)"><svg width="244.43135999999998" viewBox="0.6 -38.9 227.18 39.6" height="42.60335323943663" data-palette-color="#d8b27a"><g class="wordmark-text-0" data-fill-palette-color="primary" id="text-0"><path d="M29.25-38.9L37.7-8.2 39.7-8.2 39.7 0 20.1 0 20.1-8.2 23.1-8.2 22.3-12.2 15.5-12.2 14.7-8.2 17.7-8.2 17.7 0 0.6 0 0.6-8.2 2.6-8.2 11.05-38.9 29.25-38.9ZM18.65-27.45L16.6-17.5 21.2-17.5 19.15-27.45 18.65-27.45ZM56.15 0.7Q49 0.7 45-3.03 41-6.75 41-13.9L41-13.9Q41-21.05 45-24.78 49-28.5 56.1-28.5L56.1-28.5Q59.55-28.5 62.7-27.55 65.85-26.6 67.6-25.4L67.6-25.4 67.6-15.5 59-15.5 59-16.4Q59-18.05 58.3-18.82 57.6-19.6 56.1-19.6L56.1-19.6Q53.2-19.6 53.2-16.4L53.2-16.4 53.2-12.1Q53.2-8.2 57.65-8.2L57.65-8.2Q61.8-8.2 67.3-9.1L67.3-9.1 67.3-1.25Q65.6-0.5 62.52 0.1 59.45 0.7 56.15 0.7L56.15 0.7ZM100-8.2L102.2-8.2 102.2 0 88.5 0 88.5-3.9Q84.9 0.7 79.5 0.7L79.5 0.7Q75.35 0.7 73.27-1.9 71.2-4.5 71.2-9.05L71.2-9.05 71.2-19.6 69-19.6 69-27.8 82.7-27.8 82.7-11.4Q82.7-9.75 83.42-8.97 84.15-8.2 85.6-8.2L85.6-8.2Q87.05-8.2 87.77-8.97 88.5-9.75 88.5-11.4L88.5-11.4 88.5-19.6 85.8-19.6 85.8-27.8 100-27.8 100-8.2ZM125.04 0.7Q122.49 0.7 120.52-0.55 118.54-1.8 117.29-3.4L117.29-3.4 117.29 0 103.59 0 103.59-8.2 105.79-8.2 105.79-30.7 103.59-30.7 103.59-38.9 117.29-38.9 117.29-24.4Q118.54-26 120.52-27.25 122.49-28.5 125.04-28.5L125.04-28.5Q130.14-28.5 132.72-24.7 135.29-20.9 135.29-13.9L135.29-13.9Q135.29-6.9 132.72-3.1 130.14 0.7 125.04 0.7L125.04 0.7ZM120.19-8.2Q121.64-8.2 122.37-8.97 123.09-9.75 123.09-11.4L123.09-11.4 123.09-16.4Q123.09-18.05 122.37-18.82 121.64-19.6 120.19-19.6L120.19-19.6Q118.74-19.6 118.02-18.82 117.29-18.05 117.29-16.4L117.29-16.4 117.29-11.4Q117.29-9.75 118.02-8.97 118.74-8.2 120.19-8.2L120.19-8.2ZM149.29-30.55L139.09-30.55 139.09-38.9 149.29-38.9 149.29-30.55ZM152.59 0L136.69 0 136.69-8.2 138.89-8.2 138.89-19.6 136.69-19.6 136.69-27.8 150.39-27.8 150.39-8.2 152.59-8.2 152.59 0ZM168.94 0.7Q161.79 0.7 157.79-3.03 153.79-6.75 153.79-13.9L153.79-13.9Q153.79-21.05 157.79-24.78 161.79-28.5 168.89-28.5L168.89-28.5Q172.34-28.5 175.49-27.55 178.64-26.6 180.39-25.4L180.39-25.4 180.39-15.5 171.79-15.5 171.79-16.4Q171.79-18.05 171.09-18.82 170.39-19.6 168.89-19.6L168.89-19.6Q165.99-19.6 165.99-16.4L165.99-16.4 165.99-12.1Q165.99-8.2 170.44-8.2L170.44-8.2Q174.59-8.2 180.09-9.1L180.09-9.1 180.09-1.25Q178.39-0.5 175.31 0.1 172.24 0.7 168.94 0.7L168.94 0.7ZM197.99 0.05L182.09 0.05 182.09-8.2 184.29-8.2 184.29-30.7 182.09-30.7 182.09-38.9 195.79-38.9 195.79-8.2 197.99-8.2 197.99 0.05ZM214.48 0.7Q207.38 0.7 203.38-3.03 199.38-6.75 199.38-13.9L199.38-13.9Q199.38-21.05 203.38-24.78 207.38-28.5 214.48-28.5L214.48-28.5Q221.53-28.5 224.66-24.83 227.78-21.15 227.78-15.7L227.78-15.7 227.78-12.1 211.58-12.1 211.58-11.8Q211.58-9.95 212.68-9.08 213.78-8.2 216.33-8.2L216.33-8.2Q219.38-8.2 222.13-8.65 224.88-9.1 226.93-9.8L226.93-9.8 226.93-1.8Q225.18-0.85 221.81-0.08 218.43 0.7 214.48 0.7L214.48 0.7ZM211.58-17.6L217.38-17.6 217.38-18.2Q217.38-19.9 216.66-20.65 215.93-21.4 214.48-21.4L214.48-21.4Q213.03-21.4 212.31-20.63 211.58-19.85 211.58-18.2L211.58-18.2 211.58-17.6Z" fill="#000000" data-fill-palette-color="primary"></path></g></svg></g></svg></g></svg></g></svg></g><g><svg viewBox="0 0 84.0888559547663 58.87783417690142" height="58.87783417690142" width="84.0888559547663"><g><svg xmlns="http://www.w3.org/2000/svg" xmlns:xlink="http://www.w3.org/1999/xlink" version="1.1" x="0" y="0" viewBox="1 14 97.884 68.537" enable-background="new 0 0 100 100" xml:space="preserve" height="58.87783417690142" width="84.0888559547663" class="icon-icon-0" data-fill-palette-color="accent" id="icon-0"></svg></g></svg></g></svg></g></svg></g></svg></g><path d="M186.656 96.347L186.656 32.35 4.156 32.35 4.156 214.85 186.656 214.85 186.656 150.853 183.882 150.853 183.882 212.076 6.93 212.076 6.93 35.124 183.882 35.124 183.882 96.347Z" fill="#000000" stroke="transparent" data-fill-palette-color="tertiary"></path></svg></g><defs></defs><mask id="8a010397-dd47-48c2-ae40-61ff9cdc5f81"><g id="SvgjsG3854"><svg viewBox="0 0 395.52 247.2" height="247.2" width="395.52"><g><svg></svg></g><g><svg viewBox="0 0 395.52 247.2" height="247.2" width="395.52"><g transform="matrix(1,0,0,1,75.54432,102.34700118917502)"><svg viewBox="0 0 244.43135999999998 42.50599762164996" height="42.50599762164996" width="244.43135999999998"><g><svg viewBox="0 0 244.43135999999998 42.50599762164996" height="42.50599762164996" width="244.43135999999998"><g><svg viewBox="0 0 338.57784517411955 58.87783417690142" height="42.50599762164996" width="244.43135999999998"><g transform="matrix(1,0,0,1,94.14648517411955,8.137240468732397)"><svg viewBox="0 0 244.43135999999998 42.60335323943663" height="42.60335323943663" width="244.43135999999998"><g id="SvgjsG3853"><svg viewBox="0 0 244.43135999999998 42.60335323943663" height="42.60335323943663" width="244.43135999999998" id="SvgjsSvg3852"><g><svg viewBox="0 0 244.43135999999998 42.60335323943663" height="42.60335323943663" width="244.43135999999998"><g transform="matrix(1,0,0,1,0,0)"><svg width="244.43135999999998" viewBox="0.6 -38.9 227.18 39.6" height="42.60335323943663" data-palette-color="#d8b27a"><g class="wordmark-text-0" data-fill-palette-color="primary" id="SvgjsG3851"><path d="M29.25-38.9L37.7-8.2 39.7-8.2 39.7 0 20.1 0 20.1-8.2 23.1-8.2 22.3-12.2 15.5-12.2 14.7-8.2 17.7-8.2 17.7 0 0.6 0 0.6-8.2 2.6-8.2 11.05-38.9 29.25-38.9ZM18.65-27.45L16.6-17.5 21.2-17.5 19.15-27.45 18.65-27.45ZM56.15 0.7Q49 0.7 45-3.03 41-6.75 41-13.9L41-13.9Q41-21.05 45-24.78 49-28.5 56.1-28.5L56.1-28.5Q59.55-28.5 62.7-27.55 65.85-26.6 67.6-25.4L67.6-25.4 67.6-15.5 59-15.5 59-16.4Q59-18.05 58.3-18.82 57.6-19.6 56.1-19.6L56.1-19.6Q53.2-19.6 53.2-16.4L53.2-16.4 53.2-12.1Q53.2-8.2 57.65-8.2L57.65-8.2Q61.8-8.2 67.3-9.1L67.3-9.1 67.3-1.25Q65.6-0.5 62.52 0.1 59.45 0.7 56.15 0.7L56.15 0.7ZM100-8.2L102.2-8.2 102.2 0 88.5 0 88.5-3.9Q84.9 0.7 79.5 0.7L79.5 0.7Q75.35 0.7 73.27-1.9 71.2-4.5 71.2-9.05L71.2-9.05 71.2-19.6 69-19.6 69-27.8 82.7-27.8 82.7-11.4Q82.7-9.75 83.42-8.97 84.15-8.2 85.6-8.2L85.6-8.2Q87.05-8.2 87.77-8.97 88.5-9.75 88.5-11.4L88.5-11.4 88.5-19.6 85.8-19.6 85.8-27.8 100-27.8 100-8.2ZM125.04 0.7Q122.49 0.7 120.52-0.55 118.54-1.8 117.29-3.4L117.29-3.4 117.29 0 103.59 0 103.59-8.2 105.79-8.2 105.79-30.7 103.59-30.7 103.59-38.9 117.29-38.9 117.29-24.4Q118.54-26 120.52-27.25 122.49-28.5 125.04-28.5L125.04-28.5Q130.14-28.5 132.72-24.7 135.29-20.9 135.29-13.9L135.29-13.9Q135.29-6.9 132.72-3.1 130.14 0.7 125.04 0.7L125.04 0.7ZM120.19-8.2Q121.64-8.2 122.37-8.97 123.09-9.75 123.09-11.4L123.09-11.4 123.09-16.4Q123.09-18.05 122.37-18.82 121.64-19.6 120.19-19.6L120.19-19.6Q118.74-19.6 118.02-18.82 117.29-18.05 117.29-16.4L117.29-16.4 117.29-11.4Q117.29-9.75 118.02-8.97 118.74-8.2 120.19-8.2L120.19-8.2ZM149.29-30.55L139.09-30.55 139.09-38.9 149.29-38.9 149.29-30.55ZM152.59 0L136.69 0 136.69-8.2 138.89-8.2 138.89-19.6 136.69-19.6 136.69-27.8 150.39-27.8 150.39-8.2 152.59-8.2 152.59 0ZM168.94 0.7Q161.79 0.7 157.79-3.03 153.79-6.75 153.79-13.9L153.79-13.9Q153.79-21.05 157.79-24.78 161.79-28.5 168.89-28.5L168.89-28.5Q172.34-28.5 175.49-27.55 178.64-26.6 180.39-25.4L180.39-25.4 180.39-15.5 171.79-15.5 171.79-16.4Q171.79-18.05 171.09-18.82 170.39-19.6 168.89-19.6L168.89-19.6Q165.99-19.6 165.99-16.4L165.99-16.4 165.99-12.1Q165.99-8.2 170.44-8.2L170.44-8.2Q174.59-8.2 180.09-9.1L180.09-9.1 180.09-1.25Q178.39-0.5 175.31 0.1 172.24 0.7 168.94 0.7L168.94 0.7ZM197.99 0.05L182.09 0.05 182.09-8.2 184.29-8.2 184.29-30.7 182.09-30.7 182.09-38.9 195.79-38.9 195.79-8.2 197.99-8.2 197.99 0.05ZM214.48 0.7Q207.38 0.7 203.38-3.03 199.38-6.75 199.38-13.9L199.38-13.9Q199.38-21.05 203.38-24.78 207.38-28.5 214.48-28.5L214.48-28.5Q221.53-28.5 224.66-24.83 227.78-21.15 227.78-15.7L227.78-15.7 227.78-12.1 211.58-12.1 211.58-11.8Q211.58-9.95 212.68-9.08 213.78-8.2 216.33-8.2L216.33-8.2Q219.38-8.2 222.13-8.65 224.88-9.1 226.93-9.8L226.93-9.8 226.93-1.8Q225.18-0.85 221.81-0.08 218.43 0.7 214.48 0.7L214.48 0.7ZM211.58-17.6L217.38-17.6 217.38-18.2Q217.38-19.9 216.66-20.65 215.93-21.4 214.48-21.4L214.48-21.4Q213.03-21.4 212.31-20.63 211.58-19.85 211.58-18.2L211.58-18.2 211.58-17.6Z" fill="black"></path></g></svg></g></svg></g></svg></g></svg></g><g><svg viewBox="0 0 84.0888559547663 58.87783417690142" height="58.87783417690142" width="84.0888559547663"><g><svg xmlns="http://www.w3.org/2000/svg" xmlns:xlink="http://www.w3.org/1999/xlink" version="1.1" x="0" y="0" viewBox="1 14 97.884 68.537" enable-background="new 0 0 100 100" xml:space="preserve" height="58.87783417690142" width="84.0888559547663" class="icon-icon-0" data-fill-palette-color="accent" id="SvgjsSvg3850"><g fill="white"><polygon points="1,62.22 1,34.836 46.602,55.735 46.602,82.537  " fill="white"></polygon><polygon points="53.283,55.735 98.884,34.835 98.884,62.22 53.283,82.537  " fill="white"></polygon><polygon points="53.203,40.799 53.203,14 94.727,32.498 64.909,46.165  " fill="white"></polygon><polygon points="5.159,32.498 46.679,14 46.679,40.799 34.976,46.165  " fill="white"></polygon></g></svg></g></svg></g></svg></g></svg></g></svg></g><path d="M186.656 96.347L186.656 32.35 4.156 32.35 4.156 214.85 186.656 214.85 186.656 150.853 183.882 150.853 183.882 212.076 6.93 212.076 6.93 35.124 183.882 35.124 183.882 96.347Z" fill="black" stroke="transparent"></path></svg></g><defs><mask></mask></defs></svg><rect width="395.52" height="247.2" fill="black" stroke="none" visibility="hidden"></rect></g></mask><linearGradient x1="0.054" x2="0.941" y1="0.5" y2="0.5" id="09ff54ac-3794-4ecd-85fc-08bfc9939b79"><stop stop-color="#9c7945" offset="0"></stop><stop stop-color="#faf3aa" offset="0.498"></stop><stop stop-color="#9c7945" offset="1"></stop></linearGradient><rect width="395.52" height="247.2" fill="#000000" mask="url(#8a010397-dd47-48c2-ae40-61ff9cdc5f81)" data-fill-palette-color="accent"></rect><mask id="3ad9fda6-1309-4ffb-ba68-88b3af94e6a3"><g id="SvgjsG3864"><svg viewBox="0 0 395.52 247.2" height="247.2" width="395.52"><g><svg></svg></g><g><svg viewBox="0 0 395.52 247.2" height="247.2" width="395.52"><g transform="matrix(1,0,0,1,75.54432,102.34700118917502)"><svg viewBox="0 0 244.43135999999998 42.50599762164996" height="42.50599762164996" width="244.43135999999998"><g><svg viewBox="0 0 244.43135999999998 42.50599762164996" height="42.50599762164996" width="244.43135999999998"><g><svg viewBox="0 0 338.57784517411955 58.87783417690142" height="42.50599762164996" width="244.43135999999998"><g transform="matrix(1,0,0,1,94.14648517411955,8.137240468732397)"><svg viewBox="0 0 244.43135999999998 42.60335323943663" height="42.60335323943663" width="244.43135999999998"><g id="SvgjsG3863"><svg viewBox="0 0 244.43135999999998 42.60335323943663" height="42.60335323943663" width="244.43135999999998" id="SvgjsSvg3862"><g><svg viewBox="0 0 244.43135999999998 42.60335323943663" height="42.60335323943663" width="244.43135999999998"><g transform="matrix(1,0,0,1,0,0)"><svg width="244.43135999999998" viewBox="0.6 -38.9 227.18 39.6" height="42.60335323943663" data-palette-color="#d8b27a"><g class="wordmark-text-0" data-fill-palette-color="primary" id="SvgjsG3861"><path d="M29.25-38.9L37.7-8.2 39.7-8.2 39.7 0 20.1 0 20.1-8.2 23.1-8.2 22.3-12.2 15.5-12.2 14.7-8.2 17.7-8.2 17.7 0 0.6 0 0.6-8.2 2.6-8.2 11.05-38.9 29.25-38.9ZM18.65-27.45L16.6-17.5 21.2-17.5 19.15-27.45 18.65-27.45ZM56.15 0.7Q49 0.7 45-3.03 41-6.75 41-13.9L41-13.9Q41-21.05 45-24.78 49-28.5 56.1-28.5L56.1-28.5Q59.55-28.5 62.7-27.55 65.85-26.6 67.6-25.4L67.6-25.4 67.6-15.5 59-15.5 59-16.4Q59-18.05 58.3-18.82 57.6-19.6 56.1-19.6L56.1-19.6Q53.2-19.6 53.2-16.4L53.2-16.4 53.2-12.1Q53.2-8.2 57.65-8.2L57.65-8.2Q61.8-8.2 67.3-9.1L67.3-9.1 67.3-1.25Q65.6-0.5 62.52 0.1 59.45 0.7 56.15 0.7L56.15 0.7ZM100-8.2L102.2-8.2 102.2 0 88.5 0 88.5-3.9Q84.9 0.7 79.5 0.7L79.5 0.7Q75.35 0.7 73.27-1.9 71.2-4.5 71.2-9.05L71.2-9.05 71.2-19.6 69-19.6 69-27.8 82.7-27.8 82.7-11.4Q82.7-9.75 83.42-8.97 84.15-8.2 85.6-8.2L85.6-8.2Q87.05-8.2 87.77-8.97 88.5-9.75 88.5-11.4L88.5-11.4 88.5-19.6 85.8-19.6 85.8-27.8 100-27.8 100-8.2ZM125.04 0.7Q122.49 0.7 120.52-0.55 118.54-1.8 117.29-3.4L117.29-3.4 117.29 0 103.59 0 103.59-8.2 105.79-8.2 105.79-30.7 103.59-30.7 103.59-38.9 117.29-38.9 117.29-24.4Q118.54-26 120.52-27.25 122.49-28.5 125.04-28.5L125.04-28.5Q130.14-28.5 132.72-24.7 135.29-20.9 135.29-13.9L135.29-13.9Q135.29-6.9 132.72-3.1 130.14 0.7 125.04 0.7L125.04 0.7ZM120.19-8.2Q121.64-8.2 122.37-8.97 123.09-9.75 123.09-11.4L123.09-11.4 123.09-16.4Q123.09-18.05 122.37-18.82 121.64-19.6 120.19-19.6L120.19-19.6Q118.74-19.6 118.02-18.82 117.29-18.05 117.29-16.4L117.29-16.4 117.29-11.4Q117.29-9.75 118.02-8.97 118.74-8.2 120.19-8.2L120.19-8.2ZM149.29-30.55L139.09-30.55 139.09-38.9 149.29-38.9 149.29-30.55ZM152.59 0L136.69 0 136.69-8.2 138.89-8.2 138.89-19.6 136.69-19.6 136.69-27.8 150.39-27.8 150.39-8.2 152.59-8.2 152.59 0ZM168.94 0.7Q161.79 0.7 157.79-3.03 153.79-6.75 153.79-13.9L153.79-13.9Q153.79-21.05 157.79-24.78 161.79-28.5 168.89-28.5L168.89-28.5Q172.34-28.5 175.49-27.55 178.64-26.6 180.39-25.4L180.39-25.4 180.39-15.5 171.79-15.5 171.79-16.4Q171.79-18.05 171.09-18.82 170.39-19.6 168.89-19.6L168.89-19.6Q165.99-19.6 165.99-16.4L165.99-16.4 165.99-12.1Q165.99-8.2 170.44-8.2L170.44-8.2Q174.59-8.2 180.09-9.1L180.09-9.1 180.09-1.25Q178.39-0.5 175.31 0.1 172.24 0.7 168.94 0.7L168.94 0.7ZM197.99 0.05L182.09 0.05 182.09-8.2 184.29-8.2 184.29-30.7 182.09-30.7 182.09-38.9 195.79-38.9 195.79-8.2 197.99-8.2 197.99 0.05ZM214.48 0.7Q207.38 0.7 203.38-3.03 199.38-6.75 199.38-13.9L199.38-13.9Q199.38-21.05 203.38-24.78 207.38-28.5 214.48-28.5L214.48-28.5Q221.53-28.5 224.66-24.83 227.78-21.15 227.78-15.7L227.78-15.7 227.78-12.1 211.58-12.1 211.58-11.8Q211.58-9.95 212.68-9.08 213.78-8.2 216.33-8.2L216.33-8.2Q219.38-8.2 222.13-8.65 224.88-9.1 226.93-9.8L226.93-9.8 226.93-1.8Q225.18-0.85 221.81-0.08 218.43 0.7 214.48 0.7L214.48 0.7ZM211.58-17.6L217.38-17.6 217.38-18.2Q217.38-19.9 216.66-20.65 215.93-21.4 214.48-21.4L214.48-21.4Q213.03-21.4 212.31-20.63 211.58-19.85 211.58-18.2L211.58-18.2 211.58-17.6Z" fill="black"></path></g></svg></g></svg></g></svg></g></svg></g><g><svg viewBox="0 0 84.0888559547663 58.87783417690142" height="58.87783417690142" width="84.0888559547663"><g><svg xmlns="http://www.w3.org/2000/svg" xmlns:xlink="http://www.w3.org/1999/xlink" version="1.1" x="0" y="0" viewBox="1 14 97.884 68.537" enable-background="new 0 0 100 100" xml:space="preserve" height="58.87783417690142" width="84.0888559547663" class="icon-icon-0" data-fill-palette-color="accent" id="SvgjsSvg3860"></svg></g></svg></g></svg></g></svg></g></svg></g><path d="M186.656 96.347L186.656 32.35 4.156 32.35 4.156 214.85 186.656 214.85 186.656 150.853 183.882 150.853 183.882 212.076 6.93 212.076 6.93 35.124 183.882 35.124 183.882 96.347Z" fill="white" stroke="transparent"></path></svg></g><defs><mask></mask></defs><mask><g id="SvgjsG3859"><svg viewBox="0 0 395.52 247.2" height="247.2" width="395.52"><g><svg></svg></g><g><svg viewBox="0 0 395.52 247.2" height="247.2" width="395.52"><g transform="matrix(1,0,0,1,75.54432,102.34700118917502)"><svg viewBox="0 0 244.43135999999998 42.50599762164996" height="42.50599762164996" width="244.43135999999998"><g><svg viewBox="0 0 244.43135999999998 42.50599762164996" height="42.50599762164996" width="244.43135999999998"><g><svg viewBox="0 0 338.57784517411955 58.87783417690142" height="42.50599762164996" width="244.43135999999998"><g transform="matrix(1,0,0,1,94.14648517411955,8.137240468732397)"><svg viewBox="0 0 244.43135999999998 42.60335323943663" height="42.60335323943663" width="244.43135999999998"><g id="SvgjsG3858"><svg viewBox="0 0 244.43135999999998 42.60335323943663" height="42.60335323943663" width="244.43135999999998" id="SvgjsSvg3857"><g><svg viewBox="0 0 244.43135999999998 42.60335323943663" height="42.60335323943663" width="244.43135999999998"><g transform="matrix(1,0,0,1,0,0)"><svg width="244.43135999999998" viewBox="0.6 -38.9 227.18 39.6" height="42.60335323943663" data-palette-color="#d8b27a"><g class="wordmark-text-0" data-fill-palette-color="primary" id="SvgjsG3856"><path d="M29.25-38.9L37.7-8.2 39.7-8.2 39.7 0 20.1 0 20.1-8.2 23.1-8.2 22.3-12.2 15.5-12.2 14.7-8.2 17.7-8.2 17.7 0 0.6 0 0.6-8.2 2.6-8.2 11.05-38.9 29.25-38.9ZM18.65-27.45L16.6-17.5 21.2-17.5 19.15-27.45 18.65-27.45ZM56.15 0.7Q49 0.7 45-3.03 41-6.75 41-13.9L41-13.9Q41-21.05 45-24.78 49-28.5 56.1-28.5L56.1-28.5Q59.55-28.5 62.7-27.55 65.85-26.6 67.6-25.4L67.6-25.4 67.6-15.5 59-15.5 59-16.4Q59-18.05 58.3-18.82 57.6-19.6 56.1-19.6L56.1-19.6Q53.2-19.6 53.2-16.4L53.2-16.4 53.2-12.1Q53.2-8.2 57.65-8.2L57.65-8.2Q61.8-8.2 67.3-9.1L67.3-9.1 67.3-1.25Q65.6-0.5 62.52 0.1 59.45 0.7 56.15 0.7L56.15 0.7ZM100-8.2L102.2-8.2 102.2 0 88.5 0 88.5-3.9Q84.9 0.7 79.5 0.7L79.5 0.7Q75.35 0.7 73.27-1.9 71.2-4.5 71.2-9.05L71.2-9.05 71.2-19.6 69-19.6 69-27.8 82.7-27.8 82.7-11.4Q82.7-9.75 83.42-8.97 84.15-8.2 85.6-8.2L85.6-8.2Q87.05-8.2 87.77-8.97 88.5-9.75 88.5-11.4L88.5-11.4 88.5-19.6 85.8-19.6 85.8-27.8 100-27.8 100-8.2ZM125.04 0.7Q122.49 0.7 120.52-0.55 118.54-1.8 117.29-3.4L117.29-3.4 117.29 0 103.59 0 103.59-8.2 105.79-8.2 105.79-30.7 103.59-30.7 103.59-38.9 117.29-38.9 117.29-24.4Q118.54-26 120.52-27.25 122.49-28.5 125.04-28.5L125.04-28.5Q130.14-28.5 132.72-24.7 135.29-20.9 135.29-13.9L135.29-13.9Q135.29-6.9 132.72-3.1 130.14 0.7 125.04 0.7L125.04 0.7ZM120.19-8.2Q121.64-8.2 122.37-8.97 123.09-9.75 123.09-11.4L123.09-11.4 123.09-16.4Q123.09-18.05 122.37-18.82 121.64-19.6 120.19-19.6L120.19-19.6Q118.74-19.6 118.02-18.82 117.29-18.05 117.29-16.4L117.29-16.4 117.29-11.4Q117.29-9.75 118.02-8.97 118.74-8.2 120.19-8.2L120.19-8.2ZM149.29-30.55L139.09-30.55 139.09-38.9 149.29-38.9 149.29-30.55ZM152.59 0L136.69 0 136.69-8.2 138.89-8.2 138.89-19.6 136.69-19.6 136.69-27.8 150.39-27.8 150.39-8.2 152.59-8.2 152.59 0ZM168.94 0.7Q161.79 0.7 157.79-3.03 153.79-6.75 153.79-13.9L153.79-13.9Q153.79-21.05 157.79-24.78 161.79-28.5 168.89-28.5L168.89-28.5Q172.34-28.5 175.49-27.55 178.64-26.6 180.39-25.4L180.39-25.4 180.39-15.5 171.79-15.5 171.79-16.4Q171.79-18.05 171.09-18.82 170.39-19.6 168.89-19.6L168.89-19.6Q165.99-19.6 165.99-16.4L165.99-16.4 165.99-12.1Q165.99-8.2 170.44-8.2L170.44-8.2Q174.59-8.2 180.09-9.1L180.09-9.1 180.09-1.25Q178.39-0.5 175.31 0.1 172.24 0.7 168.94 0.7L168.94 0.7ZM197.99 0.05L182.09 0.05 182.09-8.2 184.29-8.2 184.29-30.7 182.09-30.7 182.09-38.9 195.79-38.9 195.79-8.2 197.99-8.2 197.99 0.05ZM214.48 0.7Q207.38 0.7 203.38-3.03 199.38-6.75 199.38-13.9L199.38-13.9Q199.38-21.05 203.38-24.78 207.38-28.5 214.48-28.5L214.48-28.5Q221.53-28.5 224.66-24.83 227.78-21.15 227.78-15.7L227.78-15.7 227.78-12.1 211.58-12.1 211.58-11.8Q211.58-9.95 212.68-9.08 213.78-8.2 216.33-8.2L216.33-8.2Q219.38-8.2 222.13-8.65 224.88-9.1 226.93-9.8L226.93-9.8 226.93-1.8Q225.18-0.85 221.81-0.08 218.43 0.7 214.48 0.7L214.48 0.7ZM211.58-17.6L217.38-17.6 217.38-18.2Q217.38-19.9 216.66-20.65 215.93-21.4 214.48-21.4L214.48-21.4Q213.03-21.4 212.31-20.63 211.58-19.85 211.58-18.2L211.58-18.2 211.58-17.6Z" fill="black"></path></g></svg></g></svg></g></svg></g></svg></g><g><svg viewBox="0 0 84.0888559547663 58.87783417690142" height="58.87783417690142" width="84.0888559547663"><g><svg xmlns="http://www.w3.org/2000/svg" xmlns:xlink="http://www.w3.org/1999/xlink" version="1.1" x="0" y="0" viewBox="1 14 97.884 68.537" enable-background="new 0 0 100 100" xml:space="preserve" height="58.87783417690142" width="84.0888559547663" class="icon-icon-0" data-fill-palette-color="accent" id="SvgjsSvg3855"><g fill="black"><polygon points="1,62.22 1,34.836 46.602,55.735 46.602,82.537  " fill="black"></polygon><polygon points="53.283,55.735 98.884,34.835 98.884,62.22 53.283,82.537  " fill="black"></polygon><polygon points="53.203,40.799 53.203,14 94.727,32.498 64.909,46.165  " fill="black"></polygon><polygon points="5.159,32.498 46.679,14 46.679,40.799 34.976,46.165  " fill="black"></polygon></g></svg></g></svg></g></svg></g></svg></g></svg></g><path d="M186.656 96.347L186.656 32.35 4.156 32.35 4.156 214.85 186.656 214.85 186.656 150.853 183.882 150.853 183.882 212.076 6.93 212.076 6.93 35.124 183.882 35.124 183.882 96.347Z" fill="black" stroke="transparent"></path></svg></g><defs><mask></mask></defs></svg><rect width="395.52" height="247.2" fill="black" stroke="none" visibility="hidden"></rect></g></mask></svg><rect width="395.52" height="247.2" fill="black" stroke="none" visibility="hidden"></rect></g></mask><linearGradient x1="0.054" x2="0.941" y1="0.5" y2="0.5" id="99f28f81-f995-42c7-82b7-caac44a55b5b"><stop stop-color="#9c7945" offset="0"></stop><stop stop-color="#faf3aa" offset="0.498"></stop><stop stop-color="#9c7945" offset="1"></stop></linearGradient></svg><rect width="395.52" height="247.2" fill="none" stroke="none" visibility="hidden"></rect></g></svg></g></svg>